HIERARCHY
ROOT Hips
{
	OFFSET 0.000000 103.266502 0.000000
	CHANNELS 6 Xposition Yposition Zposition Xrotation Yrotation Zrotation 
	JOINT Spine
	{
		OFFSET -0.002400 12.777504 0.315300
		CHANNELS 3 Xrotation Yrotation Zrotation
		JOINT Spine1
		{
			OFFSET -0.002067 5.816869 0.032633
			CHANNELS 3 Xrotation Yrotation Zrotation
			JOINT Spine1_split
			{
				OFFSET -0.002067 5.816869 0.032633
				CHANNELS 3 Xrotation Yrotation Zrotation
				JOINT Spine2
				{
					OFFSET -0.002067 5.816869 0.032633
					CHANNELS 3 Xrotation Yrotation Zrotation
					JOINT Neck
					{
						OFFSET -0.003700 21.199493 -0.826900
						CHANNELS 3 Xrotation Yrotation Zrotation
						JOINT Head
						{
							OFFSET 0.000000 20.442200 4.834800
							CHANNELS 3 Xrotation Yrotation Zrotation
							JOINT HeadTop_End
							{
								OFFSET 0.000000 34.668396 4.968400
								CHANNELS 3 Xrotation Yrotation Zrotation
								End Site
								{
									OFFSET 0.000000 0.000000 0.000000
								}
							}
						}
					}
					JOINT LeftShoulder
					{
						OFFSET 3.288150 8.794197 -1.372250
						CHANNELS 3 Xrotation Yrotation Zrotation
						JOINT LeftShoulder_split
						{
							OFFSET 3.288150 8.794197 -1.372250
							CHANNELS 3 Xrotation Yrotation Zrotation
							JOINT LeftArm
							{
								OFFSET 11.953299 -2.279007 -0.146200
								CHANNELS 3 Xrotation Yrotation Zrotation
								JOINT LeftForeArm
								{
									OFFSET 18.448900 0.000000 0.000000
									CHANNELS 3 Xrotation Yrotation Zrotation
									JOINT LeftHand
									{
										OFFSET 29.527798 0.000000 0.000000
										CHANNELS 3 Xrotation Yrotation Zrotation
										JOINT LeftHandThumb1
										{
											OFFSET 10.739754 -2.369614 9.225399
											CHANNELS 3 Xrotation Yrotation Zrotation
											JOINT LeftHandThumb2
											{
												OFFSET 4.926170 -2.844131 2.844125
												CHANNELS 3 Xrotation Yrotation Zrotation
												JOINT LeftHandThumb3
												{
													OFFSET 4.614891 -2.664413 2.664409
													CHANNELS 3 Xrotation Yrotation Zrotation
													JOINT LeftHandThumb4
													{
														OFFSET 4.432465 -2.559082 2.559083
														CHANNELS 3 Xrotation Yrotation Zrotation
														End Site
														{
															OFFSET 0.000000 0.000000 0.000000
														}
													}
												}
											}
										}
										JOINT LeftHandIndex1
										{
											OFFSET 26.467674 0.187653 6.405298
											CHANNELS 3 Xrotation Yrotation Zrotation
											JOINT LeftHandIndex2
											{
												OFFSET 8.792900 0.000000 0.000000
												CHANNELS 3 Xrotation Yrotation Zrotation
												JOINT LeftHandIndex3
												{
													OFFSET 10.075203 0.000000 0.000000
													CHANNELS 3 Xrotation Yrotation Zrotation
													End Site
													{
														OFFSET 0.000000 0.000000 0.000000
													}
												}
											}
										}
										JOINT LeftHandMiddle1
										{
											OFFSET 25.764404 0.000000 0.000000
											CHANNELS 3 Xrotation Yrotation Zrotation
											JOINT LeftHandMiddle2
											{
												OFFSET 9.393974 0.000000 0.000000
												CHANNELS 3 Xrotation Yrotation Zrotation
												JOINT LeftHandMiddle3
												{
													OFFSET 10.771950 0.000000 0.000000
													CHANNELS 3 Xrotation Yrotation Zrotation
													End Site
													{
														OFFSET 0.000000 0.000000 0.000000
													}
												}
											}
										}
										JOINT LeftHandRing1
										{
											OFFSET 24.660927 0.144547 -6.225808
											CHANNELS 3 Xrotation Yrotation Zrotation
											JOINT LeftHandRing2
											{
												OFFSET 9.393799 0.000000 0.000000
												CHANNELS 3 Xrotation Yrotation Zrotation
												JOINT LeftHandRing3
												{
													OFFSET 9.928497 0.000000 0.000000
													CHANNELS 3 Xrotation Yrotation Zrotation
													End Site
													{
														OFFSET 0.000000 0.000000 0.000000
													}
												}
											}
										}
										JOINT LeftHandPinky1
										{
											OFFSET 23.655350 0.125290 -12.815412
											CHANNELS 3 Xrotation Yrotation Zrotation
											JOINT LeftHandPinky2
											{
												OFFSET 8.425102 0.000000 0.000000
												CHANNELS 3 Xrotation Yrotation Zrotation
												JOINT LeftHandPinky3
												{
													OFFSET 8.147003 0.000000 0.000000
													CHANNELS 3 Xrotation Yrotation Zrotation
													End Site
													{
														OFFSET 0.000000 0.000000 0.000000
													}
												}
											}
										}
									}
								}
							}
						}
					}
					JOINT RightShoulder
					{
						OFFSET -3.249400 8.794197 -1.372250
						CHANNELS 3 Xrotation Yrotation Zrotation
						JOINT RightShoulder_split
						{
							OFFSET -3.249400 8.794197 -1.372250
							CHANNELS 3 Xrotation Yrotation Zrotation
							JOINT RightArm
							{
								OFFSET -11.953299 -2.279007 -0.146200
								CHANNELS 3 Xrotation Yrotation Zrotation
								JOINT RightForeArm
								{
									OFFSET -18.448900 0.000000 0.000000
									CHANNELS 3 Xrotation Yrotation Zrotation
									JOINT RightHand
									{
										OFFSET -29.527802 0.000000 0.000000
										CHANNELS 3 Xrotation Yrotation Zrotation
										JOINT RightHandThumb1
										{
											OFFSET -10.739754 -2.369614 9.225399
											CHANNELS 3 Xrotation Yrotation Zrotation
											JOINT RightHandThumb2
											{
												OFFSET -4.926170 -2.844131 2.844125
												CHANNELS 3 Xrotation Yrotation Zrotation
												JOINT RightHandThumb3
												{
													OFFSET -4.614891 -2.664413 2.664409
													CHANNELS 3 Xrotation Yrotation Zrotation
													JOINT RightHandThumb4
													{
														OFFSET -4.432465 -2.559082 2.559083
														CHANNELS 3 Xrotation Yrotation Zrotation
														End Site
														{
															OFFSET 0.000000 0.000000 0.000000
														}
													}
												}
											}
										}
										JOINT RightHandIndex1
										{
											OFFSET -26.467674 0.187653 6.405298
											CHANNELS 3 Xrotation Yrotation Zrotation
											JOINT RightHandIndex2
											{
												OFFSET -8.792900 0.000000 0.000000
												CHANNELS 3 Xrotation Yrotation Zrotation
												JOINT RightHandIndex3
												{
													OFFSET -10.075203 0.000000 0.000000
													CHANNELS 3 Xrotation Yrotation Zrotation
													End Site
													{
														OFFSET 0.000000 0.000000 0.000000
													}
												}
											}
										}
										JOINT RightHandMiddle1
										{
											OFFSET -25.764404 0.000000 0.000000
											CHANNELS 3 Xrotation Yrotation Zrotation
											JOINT RightHandMiddle2
											{
												OFFSET -9.393974 0.000000 0.000000
												CHANNELS 3 Xrotation Yrotation Zrotation
												JOINT RightHandMiddle3
												{
													OFFSET -10.771950 0.000000 0.000000
													CHANNELS 3 Xrotation Yrotation Zrotation
													End Site
													{
														OFFSET 0.000000 0.000000 0.000000
													}
												}
											}
										}
										JOINT RightHandRing1
										{
											OFFSET -24.660927 0.144547 -6.225808
											CHANNELS 3 Xrotation Yrotation Zrotation
											JOINT RightHandRing2
											{
												OFFSET -9.393799 0.000000 0.000000
												CHANNELS 3 Xrotation Yrotation Zrotation
												JOINT RightHandRing3
												{
													OFFSET -9.928497 0.000000 0.000000
													CHANNELS 3 Xrotation Yrotation Zrotation
													End Site
													{
														OFFSET 0.000000 0.000000 0.000000
													}
												}
											}
										}
										JOINT RightHandPinky1
										{
											OFFSET -23.655350 0.125290 -12.815412
											CHANNELS 3 Xrotation Yrotation Zrotation
											JOINT RightHandPinky2
											{
												OFFSET -8.425102 0.000000 0.000000
												CHANNELS 3 Xrotation Yrotation Zrotation
												JOINT RightHandPinky3
												{
													OFFSET -8.147003 0.000000 0.000000
													CHANNELS 3 Xrotation Yrotation Zrotation
													End Site
													{
														OFFSET 0.000000 0.000000 0.000000
													}
												}
											}
										}
									}
								}
							}
						}
					}
				}
			}
		}
	}
	JOINT LeftUpLeg
	{
		OFFSET 11.394100 -6.187798 -0.413800
		CHANNELS 3 Xrotation Yrotation Zrotation
		JOINT LeftLeg
		{
			OFFSET 0.430247 -32.302673 3.732800
			CHANNELS 3 Xrotation Yrotation Zrotation
			JOINT LeftFoot
			{
				OFFSET -0.430247 -48.264931 -6.423300
				CHANNELS 3 Xrotation Yrotation Zrotation
				JOINT LeftToeBase
				{
					OFFSET 4.230900 -16.068199 23.438400
					CHANNELS 3 Xrotation Yrotation Zrotation
					JOINT LeftToe_End
					{
						OFFSET 4.510700 0.695400 19.974600
						CHANNELS 3 Xrotation Yrotation Zrotation
						End Site
						{
							OFFSET 0.000000 0.000000 0.000000
						}
					}
				}
			}
		}
	}
	JOINT RightUpLeg
	{
		OFFSET -11.333700 -6.187798 -0.413800
		CHANNELS 3 Xrotation Yrotation Zrotation
		JOINT RightLeg
		{
			OFFSET -0.430392 -32.302628 3.733000
			CHANNELS 3 Xrotation Yrotation Zrotation
			JOINT RightFoot
			{
				OFFSET 0.430392 -48.264973 -6.423500
				CHANNELS 3 Xrotation Yrotation Zrotation
				JOINT RightToeBase
				{
					OFFSET -4.230900 -16.068199 23.438400
					CHANNELS 3 Xrotation Yrotation Zrotation
					JOINT RightToe_End
					{
						OFFSET -4.510700 0.695400 19.974600
						CHANNELS 3 Xrotation Yrotation Zrotation
						End Site
						{
							OFFSET 0.000000 0.000000 0.000000
						}
					}
				}
			}
		}
	}
}
MOTION
Frames: 6
Frame Time: 0.016667
0.771245 84.980797 4.326477 0.930482 -43.436834 5.359240 9.341375 13.104252 -4.584183 1.751730 3.638379 -1.540305 0.000000 0.000000 0.000000 1.716104 3.636633 -1.514275 -4.807231 12.764789 2.112760 4.999612 12.340594 0.595641 0.000000 0.000000 0.000000 0.177122 3.280460 -2.501102 0.000000 0.000000 0.000000 0.608041 -3.857606 -44.118856 -0.000001 -132.706423 0.000009 -9.689286 -8.659012 15.986218 -6.141208 -11.690805 -6.761707 9.914106 42.595519 3.409863 -0.422804 8.108109 27.509116 -0.000000 -0.000001 0.000002 0.255319 3.378219 -45.814358 5.654093 5.847754 -88.067469 -0.000000 -0.000000 -0.000001 -0.461476 3.841590 -39.722686 6.450742 5.820359 -95.892857 0.000000 -0.000003 -0.000000 0.469726 4.966827 -39.799444 8.181043 5.368613 -113.502991 -0.000000 -0.000001 0.000001 -3.762425 9.063703 -45.253821 5.342518 5.829003 -85.005304 -0.000001 -0.000002 0.000001 0.028595 13.490904 -3.638380 0.000000 0.000000 0.000000 -50.086703 20.453918 65.076772 -0.000003 105.790983 -0.000014 -20.892258 14.931915 -20.970364 -7.341090 13.749666 7.412319 9.855767 -44.489103 -3.903258 -0.115783 -14.513071 -28.973874 -0.000002 -0.000001 -0.000000 -0.124370 -2.384789 45.108874 4.500591 -4.654548 88.071171 -0.000001 0.000000 -0.000001 -0.761623 -2.932902 39.031048 5.133889 -4.632759 95.881663 -0.000001 0.000001 0.000001 0.154762 -4.068814 39.122661 6.509721 -4.273595 113.462850 0.000000 0.000004 -0.000003 -4.198879 -8.025520 44.637762 4.252917 -4.639640 85.014798 0.000000 0.000002 -0.000002 -43.156359 9.553656 21.385367 60.923607 -9.058646 -0.825342 -19.616088 -10.268535 -10.350701 -1.594206 0.000009 0.000003 -0.000000 -0.000002 -0.000000 -30.523596 -4.048206 -31.988788 55.999977 -9.668477 -6.552660 -18.465936 -5.701741 25.502806 -1.421723 -0.000016 -0.000003 -0.000000 -0.000000 -0.000000 
1.100635 85.106247 4.403760 1.534552 -47.385363 5.894499 9.376058 13.391633 -4.634383 1.781056 3.670399 -1.552475 0.000000 0.000000 0.000000 1.745709 3.669437 -1.526469 -4.852180 13.507692 1.989612 5.455247 14.636199 -0.622791 0.000001 0.000000 -0.000001 0.097888 3.823971 -2.193748 0.000000 0.000000 0.000000 0.257141 0.811126 -40.840259 -0.000015 -133.311892 -0.000011 -10.152848 -8.537427 13.607087 -6.141215 -11.690801 -6.761701 9.914108 42.595512 3.409871 -0.422798 8.108108 27.509116 0.000000 -0.000001 -0.000001 0.255316 3.378219 -45.814361 5.654090 5.847756 -88.067469 0.000000 0.000001 -0.000000 -0.461474 3.841588 -39.722690 6.450754 5.820358 -95.892851 -0.000000 0.000001 0.000000 0.469722 4.966829 -39.799444 8.181044 5.368610 -113.502991 0.000001 0.000001 0.000001 -3.762424 9.063696 -45.253821 5.342520 5.829006 -85.005304 0.000001 0.000000 0.000001 0.200216 11.353367 -3.117912 0.000000 0.000000 0.000000 -51.036966 23.059955 69.349028 0.000051 106.457719 -0.000071 -20.423604 15.369078 -21.891164 -7.341089 13.749669 7.412318 9.855767 -44.489100 -3.903258 -0.115782 -14.513078 -28.973871 -0.000001 0.000002 0.000002 -0.124370 -2.384786 45.108874 4.500593 -4.654546 88.071178 -0.000000 0.000001 0.000001 -0.761623 -2.932900 39.031055 5.133889 -4.632758 95.881663 0.000003 -0.000000 -0.000000 0.154762 -4.068814 39.122661 6.509720 -4.273594 113.462843 0.000001 0.000001 -0.000000 -4.198879 -8.025521 44.637759 4.252916 -4.639639 85.014791 -0.000001 0.000001 0.000001 -41.988168 10.394226 22.169136 60.616747 -9.029725 -1.554901 -20.280058 -7.579539 -10.109395 -1.594206 0.000012 0.000003 0.000000 0.000002 0.000000 -32.844679 -2.709471 -30.581598 55.826346 -7.509210 -8.214170 -17.746073 -5.452711 24.812069 -1.421723 -0.000016 -0.000003 -0.000000 0.000000 0.000000 
1.403604 85.209404 4.428649 2.382322 -51.352774 6.446004 9.276887 13.355172 -4.636982 1.771373 3.585712 -1.596583 0.000000 0.000000 0.000000 1.740268 3.584196 -1.570212 -4.939230 14.320793 1.963291 5.901588 17.485827 -1.956384 0.000000 -0.000000 0.000000 -0.027859 4.558143 -1.523013 0.000000 0.000000 0.000000 -2.682212 4.894937 -37.047134 0.000041 -131.773583 0.000040 -12.029682 -7.006939 9.958182 -6.141213 -11.690801 -6.761705 9.914107 42.595515 3.409866 -0.422802 8.108111 27.509116 0.000000 0.000000 -0.000000 0.255316 3.378223 -45.814358 5.654087 5.847753 -88.067469 -0.000000 -0.000002 -0.000001 -0.461477 3.841592 -39.722690 6.450744 5.820359 -95.892851 -0.000003 -0.000001 -0.000001 0.469721 4.966834 -39.799441 8.181040 5.368612 -113.502984 0.000000 0.000000 -0.000003 -3.762423 9.063699 -45.253818 5.342519 5.829006 -85.005304 0.000002 0.000001 0.000001 0.408006 9.523259 -2.592241 0.000000 0.000000 0.000000 -52.008674 26.162961 72.996178 0.000164 106.923797 -0.000153 -20.167218 15.760644 -22.777308 -7.341089 13.749666 7.412318 9.855767 -44.489100 -3.903258 -0.115783 -14.513078 -28.973871 -0.000001 0.000000 0.000002 -0.124370 -2.384788 45.108871 4.500589 -4.654548 88.071171 -0.000001 0.000001 -0.000000 -0.761623 -2.932903 39.031055 5.133891 -4.632762 95.881663 0.000001 -0.000001 0.000003 0.154762 -4.068812 39.122658 6.509720 -4.273593 113.462850 0.000004 -0.000000 0.000000 -4.198879 -8.025518 44.637766 4.252912 -4.639641 85.014798 0.000001 0.000002 0.000002 -40.947520 10.922242 22.901322 60.393045 -8.959396 -2.236393 -20.983296 -4.641441 -9.937546 -1.594206 0.000010 0.000003 -0.000000 -0.000000 -0.000000 -35.368492 -1.860804 -28.677328 55.675614 -5.262213 -10.133739 -16.978329 -5.200466 24.104929 -1.421723 -0.000017 -0.000003 0.000000 -0.000000 -0.000000 
1.674848 85.254295 4.367278 3.227351 -54.964957 6.859973 9.161658 12.947572 -4.578323 1.764131 3.368148 -1.656707 0.000000 0.000000 0.000000 1.742110 3.364814 -1.629984 -5.053194 15.121583 2.024822 6.249758 20.624678 -3.332860 -0.000000 -0.000000 0.000000 -0.179992 5.325318 -0.579760 0.000000 0.000000 0.000000 -7.789438 6.885921 -33.013139 0.000006 -127.270262 0.000009 -14.645174 -4.440913 5.722894 -6.141215 -11.690801 -6.761700 9.914101 42.595512 3.409869 -0.422796 8.108106 27.509115 -0.000000 -0.000001 0.000001 0.255317 3.378222 -45.814358 5.654091 5.847755 -88.067469 0.000001 0.000001 0.000001 -0.461480 3.841592 -39.722690 6.450745 5.820360 -95.892851 -0.000000 0.000000 0.000002 0.469721 4.966829 -39.799447 8.181038 5.368612 -113.502991 0.000003 -0.000002 0.000000 -3.762426 9.063696 -45.253821 5.342518 5.829000 -85.005304 -0.000003 -0.000003 0.000000 0.645882 8.044685 -2.081283 0.000000 0.000000 0.000000 -52.775663 29.458541 75.713863 0.000159 107.580711 -0.000160 -20.173251 16.137941 -23.571490 -7.341089 13.749669 7.412318 9.855767 -44.489096 -3.903257 -0.115783 -14.513080 -28.973867 -0.000001 -0.000000 0.000005 -0.124370 -2.384787 45.108874 4.500589 -4.654549 88.071171 0.000000 -0.000000 -0.000000 -0.761622 -2.932904 39.031055 5.133890 -4.632759 95.881663 -0.000002 -0.000000 -0.000004 0.154762 -4.068811 39.122661 6.509720 -4.273594 113.462850 0.000000 -0.000001 -0.000002 -4.198879 -8.025518 44.637766 4.252916 -4.639642 85.014791 -0.000002 0.000001 0.000003 -40.069233 11.064631 23.434703 60.364249 -8.897465 -2.702349 -21.666929 -1.621658 -9.850322 -1.594206 0.000014 0.000003 -0.000000 -0.000000 -0.000000 -37.552933 -0.765401 -27.657241 55.955174 -2.944312 -10.136569 -16.398062 -4.520917 22.867591 -1.421723 -0.000016 -0.000002 -0.000000 -0.000001 0.000000 
1.919198 85.253975 4.230528 3.675248 -57.860377 6.796359 9.155436 12.148761 -4.407260 1.811338 3.011572 -1.713781 0.000000 0.000000 0.000000 1.802746 3.005530 -1.686649 -5.238823 15.870221 2.159965 6.483549 23.806785 -4.695050 -0.000000 0.000000 0.000000 -0.321634 5.900925 0.463509 0.000000 0.000000 0.000000 -13.722278 6.130285 -29.065593 0.000012 -119.097107 0.000018 -17.072879 -2.533310 1.932094 -6.141213 -11.690806 -6.761705 9.914098 42.595519 3.409866 -0.422800 8.108108 27.509116 0.000003 -0.000001 0.000000 0.255321 3.378216 -45.814354 5.654091 5.847753 -88.067469 -0.000000 -0.000002 0.000001 -0.461477 3.841592 -39.722690 6.450750 5.820357 -95.892851 -0.000000 0.000002 0.000001 0.469723 4.966829 -39.799444 8.181044 5.368612 -113.502984 0.000003 -0.000001 -0.000001 -3.762425 9.063699 -45.253825 5.342519 5.829000 -85.005304 0.000003 0.000003 0.000001 0.896320 6.912408 -1.617419 0.000000 0.000000 0.000000 -53.134555 32.659250 77.365969 0.000059 108.641283 -0.000078 -20.117407 16.480096 -24.129643 -7.341088 13.749668 7.412319 9.855767 -44.489100 -3.903258 -0.115782 -14.513076 -28.973874 0.000001 -0.000001 0.000001 -0.124369 -2.384786 45.108871 4.500591 -4.654549 88.071171 -0.000002 0.000000 0.000002 -0.761621 -2.932902 39.031055 5.133890 -4.632762 95.881656 0.000002 0.000001 -0.000002 0.154763 -4.068811 39.122661 6.509719 -4.273595 113.462850 -0.000001 0.000000 0.000000 -4.198878 -8.025518 44.637762 4.252916 -4.639636 85.014798 -0.000002 0.000001 0.000002 -39.294826 10.740087 23.701410 60.541233 -8.851712 -2.882845 -22.249133 1.217417 -9.852309 -1.594206 0.000015 0.000003 -0.000000 -0.000002 -0.000000 -39.223331 -0.199057 -26.549644 56.211480 -1.090316 -10.136758 -15.879114 -3.927295 21.798998 -1.421723 -0.000016 -0.000003 -0.000000 0.000000 0.000000 
2.127144 85.199326 4.026189 3.373911 -59.711706 5.943985 9.327099 10.919835 -4.093861 1.947400 2.500741 -1.752771 0.000000 0.000000 0.000000 1.954958 2.491322 -1.724666 -5.559965 16.496973 2.373657 6.629186 26.689473 -5.918443 0.000001 -0.000000 -0.000000 -0.413425 6.098904 1.409509 0.000000 0.000000 0.000000 -19.127557 3.078807 -25.363937 0.000023 -107.269480 0.000001 -18.855751 -3.073835 -0.690310 -6.141214 -11.690804 -6.761706 9.914100 42.595519 3.409863 -0.422798 8.108106 27.509116 0.000003 -0.000001 0.000000 0.255315 3.378220 -45.814361 5.654097 5.847754 -88.067469 0.000002 -0.000002 -0.000000 -0.461478 3.841587 -39.722693 6.450751 5.820361 -95.892851 0.000002 0.000003 0.000000 0.469723 4.966829 -39.799447 8.181039 5.368610 -113.502984 0.000000 -0.000000 -0.000000 -3.762426 9.063700 -45.253825 5.342517 5.829001 -85.005304 0.000002 -0.000003 -0.000000 1.134234 6.092606 -1.214581 0.000000 0.000000 0.000000 -52.963039 35.555062 78.044521 -0.000064 110.113783 0.000068 -19.584002 16.666217 -24.430584 -7.341088 13.749668 7.412317 9.855767 -44.489096 -3.903258 -0.115783 -14.513075 -28.973871 0.000001 -0.000003 -0.000000 -0.124369 -2.384786 45.108871 4.500590 -4.654546 88.071178 -0.000000 0.000001 0.000001 -0.761621 -2.932901 39.031048 5.133890 -4.632761 95.881656 0.000003 0.000000 -0.000003 0.154763 -4.068812 39.122661 6.509719 -4.273592 113.462843 -0.000000 -0.000000 -0.000002 -4.198879 -8.025518 44.637762 4.252917 -4.639643 85.014798 -0.000002 -0.000002 -0.000000 -38.658335 9.951978 23.729527 60.955463 -8.823415 -2.748647 -22.676593 3.540284 -9.953173 -1.594206 0.000012 0.000003 -0.000000 0.000001 0.000000 -40.162953 -0.237823 -25.594795 56.482639 0.149621 -10.134898 -15.537669 -3.459228 20.979095 -1.421723 -0.000016 -0.000003 -0.000000 -0.000001 -0.000000 
